<svg width="267" height="306" viewBox="0 0 267 306" fill="none" xmlns="http://www.w3.org/2000/svg">
<path d="M139.555 0.309334C89.196 1.06533 83.0787 65.148 83.0787 65.148L105.02 65.3627C102.84 18.1373 121.437 4.52268 133.944 5.04668C137.057 5.17735 189.376 5.13735 180.776 66.104L202.693 66.3187C202.693 66.3187 210.861 0.289321 141.237 0.295988C140.685 0.295988 140.117 0.300001 139.555 0.309334Z" fill="url(#paint0_linear_1_3)"/>
<path d="M73.7893 65.8534L91.4653 66.3934C99.2266 5.0907 129.301 5.39869 133.944 5.04669C137.085 4.81069 175.861 6.15736 167.235 67.1334L189.157 67.348C189.157 67.348 196.417 0.833334 136.737 0.228001C136.464 0.225334 136.195 0.22267 135.923 0.22267C76.9893 0.225337 73.7893 65.8534 73.7893 65.8534Z" fill="url(#paint1_linear_1_3)"/>
<path d="M107.967 135.716C85.268 137.489 66.4173 162.781 66.012 192.368C65.6027 222.145 84.0133 244.64 106.981 242.451C129.783 240.277 148.256 214.589 148.397 185.229C148.532 157.143 131.824 135.617 110.473 135.617C109.645 135.617 108.809 135.651 107.967 135.716Z" fill="url(#paint2_linear_1_3)"/>
<path d="M224.643 60.8133L221.073 60.8454L46.9253 62.6494C39.4933 62.7227 33.08 66.784 32.2453 71.9467L0.817346 268.069C-2.55599 288.913 8.68535 290.897 25.26 292.736L198.452 305.368C210.379 306.244 252.711 285.053 252.711 285.053C262.203 280.48 240.528 79.6814 237.88 72.1494C237.236 70.3387 224.82 60.8107 224.644 60.8107C224.643 60.8107 224.641 60.812 224.643 60.8133ZM49.2213 195.253C49.0093 156.867 74.7467 123.079 106.629 119.575C138.427 116.079 164.603 144.015 165.173 182.176C165.747 220.575 140.211 254.888 108.051 258.608C106.144 258.828 104.257 258.936 102.396 258.936C72.7813 258.937 49.4227 231.595 49.2213 195.253Z" fill="url(#paint3_linear_1_3)"/>
<path d="M224.641 60.8133C221.065 60.84 213.519 65.6934 214.973 90.2C216.2 110.92 217.507 150.413 217.119 191.56C216.853 219.373 215.813 247.947 213.44 272C211.8 288.72 207.133 299.773 188.853 304.653C188.853 304.653 195.708 305.493 204.745 305.4C216.853 305.268 221.041 302.68 256.067 288.12C265.827 284.065 268.213 273.16 266.267 257.707C266 255.56 265.707 253.267 265.387 250.853C258.28 196.733 240.185 79.4133 237.88 72.1467C234.623 61.8933 228.556 60.7053 225.919 60.7053C225.124 60.7053 224.641 60.8133 224.641 60.8133Z" fill="url(#paint4_linear_1_3)"/>
<path d="M213.44 272C211.8 288.72 207.133 299.773 188.853 304.653C188.853 304.653 195.708 305.493 204.745 305.4C216.853 305.268 221.041 302.68 256.067 288.12C265.827 284.065 268.213 273.16 266.267 257.707C266.267 257.707 266.053 255.067 265.387 250.853C262.893 235.025 254.027 196.973 226.025 192.64C222.88 192.16 219.92 191.8 217.119 191.56C216.853 219.373 215.813 247.947 213.44 272Z" fill="url(#paint5_linear_1_3)"/>
<path d="M204.747 305.396C206.791 305.373 208.609 305.279 210.389 305.072C220.753 302.541 223.793 288.651 224.795 276.569C227.946 238.597 226.114 154.147 221.507 97.4639C219.449 72.1319 223.315 67.1972 226.441 65.4706C231.662 62.5852 235.395 66.6372 235.395 66.6372C230.863 59.4306 224.642 60.8133 224.642 60.8133C221.073 60.8453 213.521 65.6893 214.974 90.2039C217.031 124.927 219.309 212.356 213.445 271.993C211.801 288.717 207.138 299.767 188.854 304.652C188.854 304.652 195.706 305.492 204.747 305.396Z" fill="#001219"/>
<path d="M163.017 108.446C162.178 117.569 167.766 124.513 175.497 123.947C183.228 123.383 190.165 115.525 190.99 106.402C191.816 97.2887 186.226 90.3633 178.508 90.9273C170.789 91.4913 163.854 99.3313 163.017 108.446Z" fill="#001219"/>
<defs>
<linearGradient id="paint0_linear_1_3" x1="178.032" y1="11.7539" x2="154.403" y2="39.7577" gradientUnits="userSpaceOnUse">
<stop stop-color="#FFB537"/>
<stop offset="0.305372" stop-color="#FFB537"/>
<stop offset="1" stop-color="#FF00C6"/>
</linearGradient>
<linearGradient id="paint1_linear_1_3" x1="10.1813" y1="202.361" x2="153.147" y2="27.8206" gradientUnits="userSpaceOnUse">
<stop stop-color="#6A16B7"/>
<stop offset="0.441048" stop-color="#00C0FE"/>
<stop offset="0.545629" stop-color="#00C0FE"/>
<stop offset="0.991278" stop-color="#FF00C6"/>
<stop offset="1" stop-color="#FF00C6"/>
</linearGradient>
<linearGradient id="paint2_linear_1_3" x1="16.6038" y1="293.203" x2="198.41" y2="98.5772" gradientUnits="userSpaceOnUse">
<stop stop-color="#6A16B7"/>
<stop offset="0.441048" stop-color="#00C0FE"/>
<stop offset="0.545629" stop-color="#00C0FE"/>
<stop offset="0.991278" stop-color="#FF00C6"/>
<stop offset="1" stop-color="#FF00C6"/>
</linearGradient>
<linearGradient id="paint3_linear_1_3" x1="10.614" y1="314.783" x2="224.86" y2="91.7567" gradientUnits="userSpaceOnUse">
<stop stop-color="#6A16B7"/>
<stop offset="0.441048" stop-color="#00C0FE"/>
<stop offset="0.545629" stop-color="#00C0FE"/>
<stop offset="0.991278" stop-color="#FF00C6"/>
<stop offset="1" stop-color="#FF00C6"/>
</linearGradient>
<linearGradient id="paint4_linear_1_3" x1="280.684" y1="152.43" x2="188.161" y2="202.363" gradientUnits="userSpaceOnUse">
<stop stop-color="#FFB537"/>
<stop offset="0.305372" stop-color="#FFB537"/>
<stop offset="1" stop-color="#FF00C6"/>
</linearGradient>
<linearGradient id="paint5_linear_1_3" x1="239.655" y1="192.139" x2="227.562" y2="289.685" gradientUnits="userSpaceOnUse">
<stop stop-color="#FFB537"/>
<stop offset="0.305372" stop-color="#FFB537"/>
<stop offset="1" stop-color="#FF00C6"/>
</linearGradient>
</defs>
</svg>
